<?xml version="1.0" encoding="UTF-8"?>
<svg width="20px" height="20px" viewBox="0 0 20 20" version="1.1" xmlns="http://www.w3.org/2000/svg" xmlns:xlink="http://www.w3.org/1999/xlink">
    <!-- Generator: sketchtool 53.2 (72643) - https://sketchapp.com -->
    <title>A2961A09-6899-4258-A374-41C7CFD689C1</title>
    <desc>Created with sketchtool.</desc>
    <defs>
        <path d="M8.54802412,8.39246869 C8.54802412,8.10226894 8.79089474,7.86780902 9.09150475,7.86780902 L14.9084866,7.86780902 C15.2090966,7.86780902 15.4519672,8.10226894 15.4519672,8.39246869 C15.4519672,8.68184998 15.2090966,8.91712837 14.9084866,8.91712837 L9.09150475,8.91712837 C8.79089474,8.91712837 8.54802412,8.68184998 8.54802412,8.39246869 L8.54802412,8.39246869 Z M9.09150475,11.028149 L14.9084866,11.028149 C15.2090966,11.028149 15.4519672,10.7936891 15.4519672,10.5034894 C15.4519672,10.2141081 15.2090966,9.97882968 14.9084866,9.97882968 L9.09150475,9.97882968 C8.79089474,9.97882968 8.54802412,10.2141081 8.54802412,10.5034894 C8.54802412,10.7936891 8.79089474,11.028149 9.09150475,11.028149 L9.09150475,11.028149 Z M13.6152201,12.6168815 C13.6152201,12.4775193 13.5583242,12.344709 13.4564215,12.2463458 C13.3545189,12.1479826 13.2160944,12.0922281 13.071746,12.0922281 L9.09151127,12.0922281 C8.79090126,12.0922281 8.54803064,12.3275065 8.54803064,12.6168878 C8.54803064,12.9070875 8.79090126,13.1415474 9.09151127,13.1415474 L13.0741373,13.1415474 C13.2176509,13.1415474 13.3560733,13.0866219 13.457965,12.9882482 C13.5598568,12.8898745 13.6176136,12.7562437 13.6176136,12.6168941 L13.6152201,12.6168815 Z M11.6476463,2.12368802 L9.4737238,3.90343856 C9.36417767,3.99361497 9.29539476,4.12150811 9.28350558,4.26085771 C9.2707677,4.39940145 9.31662312,4.53712251 9.41003439,4.64287292 C9.60364828,4.86421634 9.94673238,4.89208626 10.1759942,4.7051773 L12.0000457,3.21480805 L13.8309014,4.70681424 C14.060185,4.89454377 14.4032518,4.86667175 14.5968613,4.64533042 C14.7904773,4.423987 14.7616033,4.09280083 14.5323241,3.90589607 L12.3584016,2.12614552 C12.1545963,1.95727017 11.8531385,1.95809073 11.6501811,2.12778519 L11.6476463,2.12368802 Z M21.8063861,9.83618521 C21.9286693,9.93619794 22,10.0821247 22,10.2370672 L22,20.1489377 C21.9991509,21.1703871 21.1414745,21.9983631 20.0825351,22 L3.91746486,22 C2.85852547,21.9983603 2.00084783,21.1703871 2,20.1489377 L2,10.2370672 C2,10.0821289 2.07133074,9.93620633 2.19361389,9.83618521 L4.24186192,8.17859643 L4.24101279,8.17859643 C4.47029639,7.9908669 4.8133631,8.01873892 5.00782047,8.24008024 C5.20143435,8.46142367 5.17256249,8.79260984 4.94328106,8.98033307 L3.42153531,10.2141018 L5.77371945,11.8192246 L5.77371945,6.78249173 C5.77371945,6.03976251 6.39787434,5.43722235 7.16724725,5.43722235 L16.8394632,5.43722235 C17.2088561,5.43722235 17.5629664,5.57904416 17.824511,5.83153558 C18.0860556,6.08402699 18.2329693,6.42587005 18.2329693,6.78247074 L18.2329693,11.8192036 L20.5868926,10.2116044 L19.077886,8.98192803 C18.9683399,8.8925722 18.899557,8.76385849 18.8876678,8.62532735 C18.875779,8.48596515 18.9207853,8.34824408 19.0141966,8.24249368 C19.2078105,8.02115025 19.5508946,7.99328033 19.7801564,8.18018929 L21.8063861,9.83618521 Z M6.5999999,12.3800159 L12,15.9000006 L17.4000001,12.3800159 L17.4000001,6.59649299 C17.4000001,6.43223615 17.255645,6.30000019 17.0783086,6.30000019 L6.92182823,6.30000019 C6.74450329,6.30000019 6.60013678,6.43222774 6.60013678,6.59649299 L6.5999999,12.3800159 Z M20.9131214,11.2757254 L14.7717903,15.4730028 L19.1739834,18.7177081 C19.4143105,18.8915006 19.462702,19.2202271 19.2826795,19.4522316 C19.102657,19.6842361 18.7621337,19.7309518 18.5218066,19.5571636 L13.8411341,16.1051128 L12.3193883,17.1544321 C12.131718,17.2831375 11.8795169,17.2831375 11.6909943,17.1544321 L10.1692486,16.1051128 L5.49096735,19.5571636 C5.25148805,19.730956 4.910117,19.6842299 4.73009448,19.4522316 C4.55007196,19.2202334 4.59932,18.8914964 4.8387906,18.7177081 L9.22815751,15.4690154 L3.08682646,11.2759353 L3.08682646,20.1491896 C3.0876756,20.5910579 3.45876286,20.9492956 3.91733008,20.9509325 L20.0824004,20.9509325 C20.5409676,20.9492928 20.9120561,20.5910579 20.912904,20.1491896 L20.9131214,11.2757254 Z" id="path-1"></path>
    </defs>
    <g id="Page-1" stroke="none" stroke-width="1" fill="none" fill-rule="evenodd">
        <g id="NY" transform="translate(-67.000000, -328.000000)">
            <g id="Group-2" transform="translate(65.000000, 326.000000)">
                <g id="icon-/-email-outline">
                    <rect id="bounds" x="0" y="0" width="24" height="24"></rect>
                    <mask id="mask-2" fill="white">
                        <use xlink:href="#path-1"></use>
                    </mask>
                    <use id="Mask" fill="#24BB6D" fill-rule="nonzero" xlink:href="#path-1"></use>
                    <g id="🌈-color" mask="url(#mask-2)" fill="#003D9C">
                        <g transform="translate(0.520000, 0.520000)" id="Rectangle">
                            <rect x="0" y="0" width="22.5599995" height="22.5599995"></rect>
                        </g>
                    </g>
                </g>
            </g>
        </g>
    </g>
</svg>